  0
SECTION
  2
HEADER
  9
$INSUNITS
 70
     4
  9
$MEASUREMENT
 70
     1
  9
$ACADVER
  1
AC1012
  9
$HANDSEED
  5
1F
  0
ENDSEC
  0
SECTION
  2
TABLES
  0
TABLE
  2
LAYER
  5
4
330
0
100
AcDbSymbolTable
 70
     2
  0
LAYER
  5
5
330
4
100
AcDbSymbolTableRecord
100
AcDbLayerTableRecord
  2
1
 70
     0
 62
     7
  6
Continuous
  0
LAYER
  5
E
330
4
100
AcDbSymbolTableRecord
100
AcDbLayerTableRecord
  2
0
 70
     0
  6
Continuous
  0
ENDTAB
  0
TABLE
  2
LTYPE
  5
6
330
0
100
AcDbSymbolTable
 70
     3
  0
LTYPE
  5
7
330
6
100
AcDbSymbolTableRecord
100
AcDbLinetypeTableRecord
  2
Continuous
 70
     0
  3
_
 72
    65
 73
     0
 40
0.0
  0
LTYPE
  5
C
330
6
100
AcDbSymbolTableRecord
100
AcDbLinetypeTableRecord
  2
BYBLOCK
 70
     0
  3
 
 72
    65
 73
     0
 40
0.0
  0
LTYPE
  5
D
330
6
100
AcDbSymbolTableRecord
100
AcDbLinetypeTableRecord
  2
BYLAYER
 70
     0
  3
 
 72
    65
 73
     0
 40
0.0
  0
ENDTAB
  0
TABLE
  2
VPORT
  5
9
330
0
100
AcDbSymbolTable
 70
     0
  0
ENDTAB
  0
TABLE
  2
VIEW
  5
A
330
0
100
AcDbSymbolTable
 70
     0
  0
ENDTAB
  0
TABLE
  2
UCS
  5
B
330
0
100
AcDbSymbolTable
 70
     0
  0
ENDTAB
  0
TABLE
  2
STYLE
  5
F
330
0
100
AcDbSymbolTable
 70
     1
  0
STYLE
  5
10
330
F
100
AcDbSymbolTableRecord
100
AcDbTextStyleTableRecord
  2
STANDARD
 70
     0
 40
0.0
 41
1.0
 50
0.0
 71
     0
 42
1.0
  0
ENDTAB
  0
TABLE
  2
APPID
  5
11
330
0
100
AcDbSymbolTable
 70
     1
  0
APPID
  5
12
330
11
100
AcDbSymbolTableRecord
100
AcDbRegAppTableRecord
  2
ACAD
 70
     0
  0
ENDTAB
  0
TABLE
  2
DIMSTYLE
  5
13
330
0
100
AcDbSymbolTable
 70
     0
  0
ENDTAB
  0
TABLE
  2
BLOCK_RECORD
  5
14
330
0
100
AcDbSymbolTable
 70
     2
  0
BLOCK_RECORD
  5
15
330
14
100
AcDbSymbolTableRecord
100
AcDbBlockTableRecord
  2
*MODEL_SPACE
  0
BLOCK_RECORD
  5
16
330
14
100
AcDbSymbolTableRecord
100
AcDbBlockTableRecord
  2
*PAPER_SPACE
  0
ENDTAB
  0
ENDSEC
  0
SECTION
  2
BLOCKS
  0
BLOCK
  5
18
330
15
100
AcDbEntity
  8
0
100
AcDbBlockBegin
  2
*MODEL_SPACE
 70
     0
 10
0.0
 20
0.0
 30
0.0
  0
ENDBLK
  5
19
330
15
100
AcDbEntity
  8
0
100
AcDbBlockEnd
  0
BLOCK
  5
1A
330
16
100
AcDbEntity
  8
0
100
AcDbBlockBegin
  2
*PAPER_SPACE
 70
     0
 10
0.0
 20
0.0
 30
0.0
  0
ENDBLK
  5
1B
330
16
100
AcDbEntity
  8
0
100
AcDbBlockEnd
  0
ENDSEC
  0
SECTION
  2
ENTITIES
  0
LWPOLYLINE
  5
8
330
0
100
AcDbEntity
  8
1
100
AcDbPolyline
 90
   100
 70
     1
 10
159.592906802362
 20
30.475
 10
158.194063733638
 20
30.475
 10
154.727247252252
 20
40.0
 10
151.159157452274
 20
40.0
 10
147.692340970889
 20
30.475
 10
144.894654833441
 20
30.475
 10
141.427838352055
 20
40.0
 10
137.859748552077
 20
40.0
 10
134.392932070692
 20
30.475
 10
131.595245933244
 20
30.475
 10
128.128429451858
 20
40.0
 10
124.560339651881
 20
40.0
 10
121.093523170495
 20
30.475
 10
118.295837033047
 20
30.475
 10
114.829020551662
 20
40.0
 10
111.260930751684
 20
40.0
 10
107.794114270298
 20
30.475
 10
104.99642813285
 20
30.475
 10
101.529611651465
 20
40.0
 10
97.961521851487
 20
40.0
 10
94.4947053701014
 20
30.475
 10
91.6970192326537
 20
30.475
 10
88.2302027512681
 20
40.0
 10
84.6621129512902
 20
40.0
 10
81.1952964699046
 20
30.475
 10
78.3976103324569
 20
30.475
 10
74.9307938510713
 20
40.0
 10
71.3627040510934
 20
40.0
 10
67.8958875697078
 20
30.475
 10
65.0982014322601
 20
30.475
 10
61.6313849508745
 20
40.0
 10
58.0632951508966
 20
40.0
 10
54.596478669511
 20
30.475
 10
51.7987925320633
 20
30.475
 10
48.3319760506777
 20
40.0
 10
44.7638862506998
 20
40.0
 10
41.2970697693142
 20
30.475
 10
38.4993836318665
 20
30.475
 10
35.0325671504809
 20
40.0
 10
31.464477350503
 20
40.0
 10
27.9976608691174
 20
30.475
 10
25.1999747316697
 20
30.475
 10
21.7331582502841
 20
40.0
 10
18.1650684503062
 20
40.0
 10
14.6982519689206
 20
30.475
 10
11.9005658314729
 20
30.475
 10
8.43374935008732
 20
40.0
 10
4.86565955010943
 20
40.0
 10
1.39884306872386
 20
30.475
 10
-1.3988430687239
 20
30.475
 10
-4.86565955010947
 20
40.0
 10
-8.43374935008736
 20
40.0
 10
-11.9005658314729
 20
30.475
 10
-14.6982519689207
 20
30.475
 10
-18.1650684503063
 20
40.0
 10
-21.7331582502841
 20
40.0
 10
-25.1999747316697
 20
30.475
 10
-27.9976608691175
 20
30.475
 10
-31.4644773505031
 20
40.0
 10
-35.0325671504809
 20
40.0
 10
-38.4993836318665
 20
30.475
 10
-41.2970697693143
 20
30.475
 10
-44.7638862506999
 20
40.0
 10
-48.3319760506777
 20
40.0
 10
-51.7987925320633
 20
30.475
 10
-54.5964786695111
 20
30.475
 10
-58.0632951508966
 20
40.0
 10
-61.6313849508745
 20
40.0
 10
-65.0982014322601
 20
30.475
 10
-67.8958875697079
 20
30.475
 10
-71.3627040510934
 20
40.0
 10
-74.9307938510713
 20
40.0
 10
-78.3976103324569
 20
30.475
 10
-81.1952964699047
 20
30.475
 10
-84.6621129512902
 20
40.0
 10
-88.2302027512681
 20
40.0
 10
-91.6970192326537
 20
30.475
 10
-94.4947053701015
 20
30.475
 10
-97.961521851487
 20
40.0
 10
-101.529611651465
 20
40.0
 10
-104.99642813285
 20
30.475
 10
-107.794114270298
 20
30.475
 10
-111.260930751684
 20
40.0
 10
-114.829020551662
 20
40.0
 10
-118.295837033047
 20
30.475
 10
-121.093523170495
 20
30.475
 10
-124.560339651881
 20
40.0
 10
-128.128429451858
 20
40.0
 10
-131.595245933244
 20
30.475
 10
-134.392932070692
 20
30.475
 10
-137.859748552077
 20
40.0
 10
-141.427838352055
 20
40.0
 10
-144.894654833441
 20
30.475
 10
-147.692340970889
 20
30.475
 10
-151.159157452274
 20
40.0
 10
-154.727247252252
 20
40.0
 10
-158.194063733638
 20
30.475
 10
-159.592906802362
 20
30.475
 10
-159.592906802362
 20
0.0
 10
159.592906802362
 20
0.0
  0
ENDSEC
  0
SECTION
  2
OBJECTS
  0
DICTIONARY
  5
1D
330
0
100
AcDbDictionary
  3
ACAD_GROUP
350
1E
  0
DICTIONARY
  5
1E
330
1D
100
AcDbDictionary
  0
ENDSEC
  0
EOF
