  0
SECTION
  2
HEADER
  9
$INSUNITS
 70
     4
  9
$MEASUREMENT
 70
     1
  9
$ACADVER
  1
AC1012
  9
$HANDSEED
  5
9F
  0
ENDSEC
  0
SECTION
  2
TABLES
  0
TABLE
  2
LAYER
  5
4
330
0
100
AcDbSymbolTable
 70
     2
  0
LAYER
  5
5
330
4
100
AcDbSymbolTableRecord
100
AcDbLayerTableRecord
  2
1
 70
     0
 62
     7
  6
Continuous
  0
LAYER
  5
8E
330
4
100
AcDbSymbolTableRecord
100
AcDbLayerTableRecord
  2
0
 70
     0
  6
Continuous
  0
ENDTAB
  0
TABLE
  2
LTYPE
  5
6
330
0
100
AcDbSymbolTable
 70
     3
  0
LTYPE
  5
7
330
6
100
AcDbSymbolTableRecord
100
AcDbLinetypeTableRecord
  2
Continuous
 70
     0
  3
_
 72
    65
 73
     0
 40
0.0
  0
LTYPE
  5
8C
330
6
100
AcDbSymbolTableRecord
100
AcDbLinetypeTableRecord
  2
BYBLOCK
 70
     0
  3
 
 72
    65
 73
     0
 40
0.0
  0
LTYPE
  5
8D
330
6
100
AcDbSymbolTableRecord
100
AcDbLinetypeTableRecord
  2
BYLAYER
 70
     0
  3
 
 72
    65
 73
     0
 40
0.0
  0
ENDTAB
  0
TABLE
  2
VPORT
  5
89
330
0
100
AcDbSymbolTable
 70
     0
  0
ENDTAB
  0
TABLE
  2
VIEW
  5
8A
330
0
100
AcDbSymbolTable
 70
     0
  0
ENDTAB
  0
TABLE
  2
UCS
  5
8B
330
0
100
AcDbSymbolTable
 70
     0
  0
ENDTAB
  0
TABLE
  2
STYLE
  5
8F
330
0
100
AcDbSymbolTable
 70
     1
  0
STYLE
  5
90
330
8F
100
AcDbSymbolTableRecord
100
AcDbTextStyleTableRecord
  2
STANDARD
 70
     0
 40
0.0
 41
1.0
 50
0.0
 71
     0
 42
1.0
  0
ENDTAB
  0
TABLE
  2
APPID
  5
91
330
0
100
AcDbSymbolTable
 70
     1
  0
APPID
  5
92
330
91
100
AcDbSymbolTableRecord
100
AcDbRegAppTableRecord
  2
ACAD
 70
     0
  0
ENDTAB
  0
TABLE
  2
DIMSTYLE
  5
93
330
0
100
AcDbSymbolTable
 70
     0
  0
ENDTAB
  0
TABLE
  2
BLOCK_RECORD
  5
94
330
0
100
AcDbSymbolTable
 70
     2
  0
BLOCK_RECORD
  5
95
330
94
100
AcDbSymbolTableRecord
100
AcDbBlockTableRecord
  2
*MODEL_SPACE
  0
BLOCK_RECORD
  5
96
330
94
100
AcDbSymbolTableRecord
100
AcDbBlockTableRecord
  2
*PAPER_SPACE
  0
ENDTAB
  0
ENDSEC
  0
SECTION
  2
BLOCKS
  0
BLOCK
  5
98
330
95
100
AcDbEntity
  8
0
100
AcDbBlockBegin
  2
*MODEL_SPACE
 70
     0
 10
0.0
 20
0.0
 30
0.0
  0
ENDBLK
  5
99
330
95
100
AcDbEntity
  8
0
100
AcDbBlockEnd
  0
BLOCK
  5
9A
330
96
100
AcDbEntity
  8
0
100
AcDbBlockBegin
  2
*PAPER_SPACE
 70
     0
 10
0.0
 20
0.0
 30
0.0
  0
ENDBLK
  5
9B
330
96
100
AcDbEntity
  8
0
100
AcDbBlockEnd
  0
ENDSEC
  0
SECTION
  2
ENTITIES
  0
LINE
  5
8
330
0
100
AcDbEntity
  8
1
100
AcDbLine
 10
28.3927774201268
 20
-3.22192727589243
 30
0.0
 11
31.6922797732863
 21
-3.59634491285739
 31
0.0
  0
SPLINE
  5
9
330
0
100
AcDbEntity
  8
1
100
AcDbSpline
 70
     8
 71
     3
 72
     8
 73
     4
 74
     0
 40
0.0
 40
0.0
 40
0.0
 40
0.0
 40
1.0
 40
1.0
 40
1.0
 40
1.0
 10
31.6922797732863
 20
-3.59634491285739
 30
0.0
 10
31.879351245291
 20
-3.6050415847185
 30
0.0
 10
32.441871524126
 20
-3.6065079813987
 30
0.0
 10
33.3827264672139
 20
-3.39784097431433
 30
0.0
  0
SPLINE
  5
A
330
0
100
AcDbEntity
  8
1
100
AcDbSpline
 70
     8
 71
     3
 72
     8
 73
     4
 74
     0
 40
0.0
 40
0.0
 40
0.0
 40
0.0
 40
1.0
 40
1.0
 40
1.0
 40
1.0
 10
33.3827264672139
 20
-3.39784097431433
 30
0.0
 10
34.5061502030645
 20
-3.14395147224186
 30
0.0
 10
36.1162798413539
 20
-2.59271081274066
 30
0.0
 10
38.0790263788643
 20
-1.40735733267892
 30
0.0
  0
ARC
  5
B
330
0
100
AcDbEntity
  8
1
100
AcDbCircle
 10
0.0
 20
0.0
 30
0.0
 40
38.1050246637381
100
AcDbArc
 50
357.883376803109
 51
2.116623196891
  0
SPLINE
  5
C
330
0
100
AcDbEntity
  8
1
100
AcDbSpline
 70
     8
 71
     3
 72
     8
 73
     4
 74
     0
 40
0.0
 40
0.0
 40
0.0
 40
0.0
 40
1.0
 40
1.0
 40
1.0
 40
1.0
 10
38.0790263788643
 20
1.40735733267892
 30
0.0
 10
36.1162798413539
 20
2.59271081274066
 30
0.0
 10
34.5061502030645
 20
3.14395147224186
 30
0.0
 10
33.3827264672139
 20
3.39784097431433
 30
0.0
  0
SPLINE
  5
D
330
0
100
AcDbEntity
  8
1
100
AcDbSpline
 70
     8
 71
     3
 72
     8
 73
     4
 74
     0
 40
0.0
 40
0.0
 40
0.0
 40
0.0
 40
1.0
 40
1.0
 40
1.0
 40
1.0
 10
33.3827264672139
 20
3.39784097431433
 30
0.0
 10
32.441871524126
 20
3.6065079813987
 30
0.0
 10
31.879351245291
 20
3.6050415847185
 30
0.0
 10
31.6922797732863
 20
3.59634491285739
 30
0.0
  0
LINE
  5
E
330
0
100
AcDbEntity
  8
1
100
AcDbLine
 10
31.6922797732863
 20
3.59634491285739
 30
0.0
 11
28.3927774201268
 21
3.22192727589243
 31
0.0
  0
ARC
  5
F
330
0
100
AcDbEntity
  8
1
100
AcDbCircle
 10
-0.000000000000139
 20
-0.000000000000036
 30
0.0
 40
28.5750000000001
100
AcDbArc
 50
6.47405921835912
 51
16.0259407816409
  0
LINE
  5
10
330
0
100
AcDbEntity
  8
1
100
AcDbLine
 10
27.464484118373
 20
7.88877285207527
 30
0.0
 11
30.6561102363816
 21
8.80552094627588
 31
0.0
  0
SPLINE
  5
11
330
0
100
AcDbEntity
  8
1
100
AcDbSpline
 70
     8
 71
     3
 72
     8
 73
     4
 74
     0
 40
0.0
 40
0.0
 40
0.0
 40
0.0
 40
1.0
 40
1.0
 40
1.0
 40
1.0
 10
30.6561102363816
 20
8.80552094627588
 30
0.0
 10
30.8322698127215
 20
8.86907542214679
 30
0.0
 10
31.3525319506745
 20
9.08298783934695
 30
0.0
 10
32.1419151691631
 20
9.63582061528111
 30
0.0
  0
SPLINE
  5
12
330
0
100
AcDbEntity
  8
1
100
AcDbSpline
 70
     8
 71
     3
 72
     8
 73
     4
 74
     0
 40
0.0
 40
0.0
 40
0.0
 40
0.0
 40
1.0
 40
1.0
 40
1.0
 40
1.0
 10
32.1419151691631
 20
9.63582061528111
 30
0.0
 10
33.0826640589583
 20
10.3002995810011
 30
0.0
 10
34.3592792088265
 20
11.4257494803356
 30
0.0
 10
35.7190054240239
 20
13.2719838811929
 30
0.0
  0
ARC
  5
13
330
0
100
AcDbEntity
  8
1
100
AcDbCircle
 10
0.0
 20
0.0
 30
0.0
 40
38.1050246637381
100
AcDbArc
 50
20.383376803109
 51
24.616623196891
  0
SPLINE
  5
14
330
0
100
AcDbEntity
  8
1
100
AcDbSpline
 70
     8
 71
     3
 72
     8
 73
     4
 74
     0
 40
0.0
 40
0.0
 40
0.0
 40
0.0
 40
1.0
 40
1.0
 40
1.0
 40
1.0
 10
34.6418607547564
 20
15.8724411503763
 30
0.0
 10
32.3749042629272
 20
16.2164543875592
 30
0.0
 10
30.6763877777847
 20
16.109564413827
 30
0.0
 10
29.5413202758004
 20
15.9142120770756
 30
0.0
  0
SPLINE
  5
15
330
0
100
AcDbEntity
  8
1
100
AcDbSpline
 70
     8
 71
     3
 72
     8
 73
     4
 74
     0
 40
0.0
 40
0.0
 40
0.0
 40
0.0
 40
1.0
 40
1.0
 40
1.0
 40
1.0
 10
29.5413202758004
 20
15.9142120770756
 30
0.0
 10
28.592230244327
 20
15.7469456550527
 30
0.0
 10
28.0730904378036
 20
15.5303236900937
 30
0.0
 10
27.9035870059397
 20
15.4506998599559
 30
0.0
  0
LINE
  5
16
330
0
100
AcDbEntity
  8
1
100
AcDbLine
 10
27.9035870059397
 20
15.4506998599559
 30
0.0
 11
24.9985277408345
 21
13.842118182949
 31
0.0
  0
ARC
  5
17
330
0
100
AcDbEntity
  8
1
100
AcDbCircle
 10
-0.000000000000119
 20
-0.000000000000078
 30
0.0
 40
28.5750000000001
100
AcDbArc
 50
28.9740592183591
 51
38.5259407816409
  0
LINE
  5
18
330
0
100
AcDbEntity
  8
1
100
AcDbLine
 10
22.3549720757653
 20
17.7984788252185
 30
0.0
 11
24.9528258143192
 21
19.8668260635848
 31
0.0
  0
SPLINE
  5
19
330
0
100
AcDbEntity
  8
1
100
AcDbSpline
 70
     8
 71
     3
 72
     8
 73
     4
 74
     0
 40
0.0
 40
0.0
 40
0.0
 40
0.0
 40
1.0
 40
1.0
 40
1.0
 40
1.0
 10
24.9528258143192
 20
19.8668260635848
 30
0.0
 10
25.091254796387
 20
19.9929560943591
 30
0.0
 10
25.4900535991427
 20
20.3896810990418
 30
0.0
 10
26.0077886537937
 20
21.2025158651314
 30
0.0
  0
SPLINE
  5
1A
330
0
100
AcDbEntity
  8
1
100
AcDbSpline
 70
     8
 71
     3
 72
     8
 73
     4
 74
     0
 40
0.0
 40
0.0
 40
0.0
 40
0.0
 40
1.0
 40
1.0
 40
1.0
 40
1.0
 10
26.0077886537937
 20
21.2025158651314
 30
0.0
 10
26.6226422069721
 20
22.1764233954848
 30
0.0
 10
27.371389784397
 20
23.7047429897078
 30
0.0
 10
27.9210896869663
 20
25.9307858599865
 30
0.0
  0
ARC
  5
1B
330
0
100
AcDbEntity
  8
1
100
AcDbCircle
 10
0.0
 20
0.0
 30
0.0
 40
38.1050246637381
100
AcDbArc
 50
42.883376803109
 51
47.116623196891
  0
SPLINE
  5
1C
330
0
100
AcDbEntity
  8
1
100
AcDbSpline
 70
     8
 71
     3
 72
     8
 73
     4
 74
     0
 40
0.0
 40
0.0
 40
0.0
 40
0.0
 40
1.0
 40
1.0
 40
1.0
 40
1.0
 10
25.9307858599865
 20
27.9210896869663
 30
0.0
 10
23.7047429897078
 20
27.371389784397
 30
0.0
 10
22.1764233954848
 20
26.6226422069721
 30
0.0
 10
21.2025158651314
 20
26.0077886537937
 30
0.0
  0
SPLINE
  5
1D
330
0
100
AcDbEntity
  8
1
100
AcDbSpline
 70
     8
 71
     3
 72
     8
 73
     4
 74
     0
 40
0.0
 40
0.0
 40
0.0
 40
0.0
 40
1.0
 40
1.0
 40
1.0
 40
1.0
 10
21.2025158651314
 20
26.0077886537937
 30
0.0
 10
20.3896810990418
 20
25.4900535991427
 30
0.0
 10
19.9929560943591
 20
25.091254796387
 30
0.0
 10
19.8668260635848
 20
24.9528258143192
 30
0.0
  0
LINE
  5
1E
330
0
100
AcDbEntity
  8
1
100
AcDbLine
 10
19.8668260635848
 20
24.9528258143192
 30
0.0
 11
17.7984788252185
 21
22.3549720757654
 31
0.0
  0
ARC
  5
1F
330
0
100
AcDbEntity
  8
1
100
AcDbCircle
 10
-0.000000000000065
 20
-0.000000000000105
 30
0.0
 40
28.5750000000001
100
AcDbArc
 50
51.4740592183591
 51
61.0259407816409
  0
LINE
  5
20
330
0
100
AcDbEntity
  8
1
100
AcDbLine
 10
13.842118182949
 20
24.9985277408345
 30
0.0
 11
15.4506998599559
 21
27.9035870059397
 31
0.0
  0
SPLINE
  5
21
330
0
100
AcDbEntity
  8
1
100
AcDbSpline
 70
     8
 71
     3
 72
     8
 73
     4
 74
     0
 40
0.0
 40
0.0
 40
0.0
 40
0.0
 40
1.0
 40
1.0
 40
1.0
 40
1.0
 10
15.4506998599559
 20
27.9035870059397
 30
0.0
 10
15.5303236900937
 20
28.0730904378036
 30
0.0
 10
15.7469456550527
 20
28.592230244327
 30
0.0
 10
15.9142120770756
 20
29.5413202758004
 30
0.0
  0
SPLINE
  5
22
330
0
100
AcDbEntity
  8
1
100
AcDbSpline
 70
     8
 71
     3
 72
     8
 73
     4
 74
     0
 40
0.0
 40
0.0
 40
0.0
 40
0.0
 40
1.0
 40
1.0
 40
1.0
 40
1.0
 10
15.9142120770756
 20
29.5413202758004
 30
0.0
 10
16.109564413827
 20
30.6763877777847
 30
0.0
 10
16.2164543875592
 20
32.3749042629272
 30
0.0
 10
15.8724411503763
 20
34.6418607547564
 30
0.0
  0
ARC
  5
23
330
0
100
AcDbEntity
  8
1
100
AcDbCircle
 10
0.0
 20
0.0
 30
0.0
 40
38.1050246637381
100
AcDbArc
 50
65.383376803109
 51
69.616623196891
  0
SPLINE
  5
24
330
0
100
AcDbEntity
  8
1
100
AcDbSpline
 70
     8
 71
     3
 72
     8
 73
     4
 74
     0
 40
0.0
 40
0.0
 40
0.0
 40
0.0
 40
1.0
 40
1.0
 40
1.0
 40
1.0
 10
13.2719838811929
 20
35.7190054240239
 30
0.0
 10
11.4257494803356
 20
34.3592792088265
 30
0.0
 10
10.3002995810011
 20
33.0826640589583
 30
0.0
 10
9.63582061528111
 20
32.1419151691631
 30
0.0
  0
SPLINE
  5
25
330
0
100
AcDbEntity
  8
1
100
AcDbSpline
 70
     8
 71
     3
 72
     8
 73
     4
 74
     0
 40
0.0
 40
0.0
 40
0.0
 40
0.0
 40
1.0
 40
1.0
 40
1.0
 40
1.0
 10
9.63582061528111
 20
32.1419151691631
 30
0.0
 10
9.08298783934695
 20
31.3525319506745
 30
0.0
 10
8.86907542214679
 20
30.8322698127215
 30
0.0
 10
8.80552094627588
 20
30.6561102363816
 30
0.0
  0
LINE
  5
26
330
0
100
AcDbEntity
  8
1
100
AcDbLine
 10
8.80552094627588
 20
30.6561102363816
 30
0.0
 11
7.88877285207527
 21
27.464484118373
 31
0.0
  0
ARC
  5
27
330
0
100
AcDbEntity
  8
1
100
AcDbCircle
 10
-0.00000000000002
 20
-0.000000000000146
 30
0.0
 40
28.5750000000001
100
AcDbArc
 50
73.9740592183591
 51
83.5259407816409
  0
LINE
  5
28
330
0
100
AcDbEntity
  8
1
100
AcDbLine
 10
3.22192727589243
 20
28.3927774201268
 30
0.0
 11
3.59634491285739
 21
31.6922797732863
 31
0.0
  0
SPLINE
  5
29
330
0
100
AcDbEntity
  8
1
100
AcDbSpline
 70
     8
 71
     3
 72
     8
 73
     4
 74
     0
 40
0.0
 40
0.0
 40
0.0
 40
0.0
 40
1.0
 40
1.0
 40
1.0
 40
1.0
 10
3.59634491285739
 20
31.6922797732863
 30
0.0
 10
3.6050415847185
 20
31.879351245291
 30
0.0
 10
3.6065079813987
 20
32.441871524126
 30
0.0
 10
3.39784097431433
 20
33.3827264672139
 30
0.0
  0
SPLINE
  5
2A
330
0
100
AcDbEntity
  8
1
100
AcDbSpline
 70
     8
 71
     3
 72
     8
 73
     4
 74
     0
 40
0.0
 40
0.0
 40
0.0
 40
0.0
 40
1.0
 40
1.0
 40
1.0
 40
1.0
 10
3.39784097431433
 20
33.3827264672139
 30
0.0
 10
3.14395147224186
 20
34.5061502030645
 30
0.0
 10
2.59271081274066
 20
36.1162798413539
 30
0.0
 10
1.40735733267892
 20
38.0790263788643
 30
0.0
  0
ARC
  5
2B
330
0
100
AcDbEntity
  8
1
100
AcDbCircle
 10
0.0
 20
0.0
 30
0.0
 40
38.1050246637381
100
AcDbArc
 50
87.883376803109
 51
92.116623196891
  0
SPLINE
  5
2C
330
0
100
AcDbEntity
  8
1
100
AcDbSpline
 70
     8
 71
     3
 72
     8
 73
     4
 74
     0
 40
0.0
 40
0.0
 40
0.0
 40
0.0
 40
1.0
 40
1.0
 40
1.0
 40
1.0
 10
-1.40735733267892
 20
38.0790263788643
 30
0.0
 10
-2.59271081274066
 20
36.1162798413539
 30
0.0
 10
-3.14395147224186
 20
34.5061502030645
 30
0.0
 10
-3.39784097431433
 20
33.3827264672139
 30
0.0
  0
SPLINE
  5
2D
330
0
100
AcDbEntity
  8
1
100
AcDbSpline
 70
     8
 71
     3
 72
     8
 73
     4
 74
     0
 40
0.0
 40
0.0
 40
0.0
 40
0.0
 40
1.0
 40
1.0
 40
1.0
 40
1.0
 10
-3.39784097431433
 20
33.3827264672139
 30
0.0
 10
-3.6065079813987
 20
32.441871524126
 30
0.0
 10
-3.60504158471849
 20
31.879351245291
 30
0.0
 10
-3.59634491285739
 20
31.6922797732863
 30
0.0
  0
LINE
  5
2E
330
0
100
AcDbEntity
  8
1
100
AcDbLine
 10
-3.59634491285739
 20
31.6922797732863
 30
0.0
 11
-3.22192727589243
 21
28.3927774201268
 31
0.0
  0
ARC
  5
2F
330
0
100
AcDbEntity
  8
1
100
AcDbCircle
 10
0.000000000000036
 20
-0.000000000000139
 30
0.0
 40
28.5750000000001
100
AcDbArc
 50
96.4740592183591
 51
106.025940781641
  0
LINE
  5
30
330
0
100
AcDbEntity
  8
1
100
AcDbLine
 10
-7.88877285207527
 20
27.464484118373
 30
0.0
 11
-8.80552094627588
 21
30.6561102363816
 31
0.0
  0
SPLINE
  5
31
330
0
100
AcDbEntity
  8
1
100
AcDbSpline
 70
     8
 71
     3
 72
     8
 73
     4
 74
     0
 40
0.0
 40
0.0
 40
0.0
 40
0.0
 40
1.0
 40
1.0
 40
1.0
 40
1.0
 10
-8.80552094627588
 20
30.6561102363816
 30
0.0
 10
-8.86907542214679
 20
30.8322698127215
 30
0.0
 10
-9.08298783934695
 20
31.3525319506745
 30
0.0
 10
-9.63582061528111
 20
32.1419151691631
 30
0.0
  0
SPLINE
  5
32
330
0
100
AcDbEntity
  8
1
100
AcDbSpline
 70
     8
 71
     3
 72
     8
 73
     4
 74
     0
 40
0.0
 40
0.0
 40
0.0
 40
0.0
 40
1.0
 40
1.0
 40
1.0
 40
1.0
 10
-9.63582061528111
 20
32.1419151691631
 30
0.0
 10
-10.3002995810011
 20
33.0826640589583
 30
0.0
 10
-11.4257494803356
 20
34.3592792088265
 30
0.0
 10
-13.2719838811929
 20
35.7190054240239
 30
0.0
  0
ARC
  5
33
330
0
100
AcDbEntity
  8
1
100
AcDbCircle
 10
0.0
 20
0.0
 30
0.0
 40
38.1050246637381
100
AcDbArc
 50
110.383376803109
 51
114.616623196891
  0
SPLINE
  5
34
330
0
100
AcDbEntity
  8
1
100
AcDbSpline
 70
     8
 71
     3
 72
     8
 73
     4
 74
     0
 40
0.0
 40
0.0
 40
0.0
 40
0.0
 40
1.0
 40
1.0
 40
1.0
 40
1.0
 10
-15.8724411503763
 20
34.6418607547564
 30
0.0
 10
-16.2164543875592
 20
32.3749042629272
 30
0.0
 10
-16.109564413827
 20
30.6763877777847
 30
0.0
 10
-15.9142120770755
 20
29.5413202758004
 30
0.0
  0
SPLINE
  5
35
330
0
100
AcDbEntity
  8
1
100
AcDbSpline
 70
     8
 71
     3
 72
     8
 73
     4
 74
     0
 40
0.0
 40
0.0
 40
0.0
 40
0.0
 40
1.0
 40
1.0
 40
1.0
 40
1.0
 10
-15.9142120770755
 20
29.5413202758004
 30
0.0
 10
-15.7469456550527
 20
28.592230244327
 30
0.0
 10
-15.5303236900937
 20
28.0730904378036
 30
0.0
 10
-15.4506998599559
 20
27.9035870059397
 30
0.0
  0
LINE
  5
36
330
0
100
AcDbEntity
  8
1
100
AcDbLine
 10
-15.4506998599559
 20
27.9035870059397
 30
0.0
 11
-13.842118182949
 21
24.9985277408345
 31
0.0
  0
ARC
  5
37
330
0
100
AcDbEntity
  8
1
100
AcDbCircle
 10
0.000000000000092
 20
-0.000000000000124
 30
0.0
 40
28.5750000000002
100
AcDbArc
 50
118.974059218359
 51
128.525940781641
  0
LINE
  5
38
330
0
100
AcDbEntity
  8
1
100
AcDbLine
 10
-17.7984788252185
 20
22.3549720757654
 30
0.0
 11
-19.8668260635848
 21
24.9528258143192
 31
0.0
  0
SPLINE
  5
39
330
0
100
AcDbEntity
  8
1
100
AcDbSpline
 70
     8
 71
     3
 72
     8
 73
     4
 74
     0
 40
0.0
 40
0.0
 40
0.0
 40
0.0
 40
1.0
 40
1.0
 40
1.0
 40
1.0
 10
-19.8668260635848
 20
24.9528258143192
 30
0.0
 10
-19.9929560943591
 20
25.091254796387
 30
0.0
 10
-20.3896810990418
 20
25.4900535991427
 30
0.0
 10
-21.2025158651314
 20
26.0077886537937
 30
0.0
  0
SPLINE
  5
3A
330
0
100
AcDbEntity
  8
1
100
AcDbSpline
 70
     8
 71
     3
 72
     8
 73
     4
 74
     0
 40
0.0
 40
0.0
 40
0.0
 40
0.0
 40
1.0
 40
1.0
 40
1.0
 40
1.0
 10
-21.2025158651314
 20
26.0077886537937
 30
0.0
 10
-22.1764233954848
 20
26.6226422069721
 30
0.0
 10
-23.7047429897078
 20
27.371389784397
 30
0.0
 10
-25.9307858599865
 20
27.9210896869663
 30
0.0
  0
ARC
  5
3B
330
0
100
AcDbEntity
  8
1
100
AcDbCircle
 10
0.0
 20
0.0
 30
0.0
 40
38.1050246637381
100
AcDbArc
 50
132.883376803109
 51
137.116623196891
  0
SPLINE
  5
3C
330
0
100
AcDbEntity
  8
1
100
AcDbSpline
 70
     8
 71
     3
 72
     8
 73
     4
 74
     0
 40
0.0
 40
0.0
 40
0.0
 40
0.0
 40
1.0
 40
1.0
 40
1.0
 40
1.0
 10
-27.9210896869663
 20
25.9307858599865
 30
0.0
 10
-27.371389784397
 20
23.7047429897078
 30
0.0
 10
-26.6226422069721
 20
22.1764233954848
 30
0.0
 10
-26.0077886537937
 20
21.2025158651314
 30
0.0
  0
SPLINE
  5
3D
330
0
100
AcDbEntity
  8
1
100
AcDbSpline
 70
     8
 71
     3
 72
     8
 73
     4
 74
     0
 40
0.0
 40
0.0
 40
0.0
 40
0.0
 40
1.0
 40
1.0
 40
1.0
 40
1.0
 10
-26.0077886537937
 20
21.2025158651314
 30
0.0
 10
-25.4900535991427
 20
20.3896810990418
 30
0.0
 10
-25.091254796387
 20
19.9929560943591
 30
0.0
 10
-24.9528258143192
 20
19.8668260635848
 30
0.0
  0
LINE
  5
3E
330
0
100
AcDbEntity
  8
1
100
AcDbLine
 10
-24.9528258143192
 20
19.8668260635848
 30
0.0
 11
-22.3549720757654
 21
17.7984788252185
 31
0.0
  0
ARC
  5
3F
330
0
100
AcDbEntity
  8
1
100
AcDbCircle
 10
0.000000000000096
 20
-0.000000000000056
 30
0.0
 40
28.5750000000001
100
AcDbArc
 50
141.474059218359
 51
151.025940781641
  0
LINE
  5
40
330
0
100
AcDbEntity
  8
1
100
AcDbLine
 10
-24.9985277408345
 20
13.842118182949
 30
0.0
 11
-27.9035870059397
 21
15.4506998599559
 31
0.0
  0
SPLINE
  5
41
330
0
100
AcDbEntity
  8
1
100
AcDbSpline
 70
     8
 71
     3
 72
     8
 73
     4
 74
     0
 40
0.0
 40
0.0
 40
0.0
 40
0.0
 40
1.0
 40
1.0
 40
1.0
 40
1.0
 10
-27.9035870059397
 20
15.4506998599559
 30
0.0
 10
-28.0730904378036
 20
15.5303236900937
 30
0.0
 10
-28.592230244327
 20
15.7469456550527
 30
0.0
 10
-29.5413202758004
 20
15.9142120770756
 30
0.0
  0
SPLINE
  5
42
330
0
100
AcDbEntity
  8
1
100
AcDbSpline
 70
     8
 71
     3
 72
     8
 73
     4
 74
     0
 40
0.0
 40
0.0
 40
0.0
 40
0.0
 40
1.0
 40
1.0
 40
1.0
 40
1.0
 10
-29.5413202758004
 20
15.9142120770756
 30
0.0
 10
-30.6763877777847
 20
16.109564413827
 30
0.0
 10
-32.3749042629272
 20
16.2164543875592
 30
0.0
 10
-34.6418607547564
 20
15.8724411503763
 30
0.0
  0
ARC
  5
43
330
0
100
AcDbEntity
  8
1
100
AcDbCircle
 10
0.0
 20
0.0
 30
0.0
 40
38.1050246637381
100
AcDbArc
 50
155.383376803109
 51
159.616623196891
  0
SPLINE
  5
44
330
0
100
AcDbEntity
  8
1
100
AcDbSpline
 70
     8
 71
     3
 72
     8
 73
     4
 74
     0
 40
0.0
 40
0.0
 40
0.0
 40
0.0
 40
1.0
 40
1.0
 40
1.0
 40
1.0
 10
-35.7190054240239
 20
13.2719838811929
 30
0.0
 10
-34.3592792088265
 20
11.4257494803356
 30
0.0
 10
-33.0826640589583
 20
10.3002995810011
 30
0.0
 10
-32.1419151691631
 20
9.63582061528112
 30
0.0
  0
SPLINE
  5
45
330
0
100
AcDbEntity
  8
1
100
AcDbSpline
 70
     8
 71
     3
 72
     8
 73
     4
 74
     0
 40
0.0
 40
0.0
 40
0.0
 40
0.0
 40
1.0
 40
1.0
 40
1.0
 40
1.0
 10
-32.1419151691631
 20
9.63582061528112
 30
0.0
 10
-31.3525319506745
 20
9.08298783934695
 30
0.0
 10
-30.8322698127215
 20
8.8690754221468
 30
0.0
 10
-30.6561102363816
 20
8.80552094627588
 30
0.0
  0
LINE
  5
46
330
0
100
AcDbEntity
  8
1
100
AcDbLine
 10
-30.6561102363816
 20
8.80552094627588
 30
0.0
 11
-27.464484118373
 21
7.88877285207527
 31
0.0
  0
ARC
  5
47
330
0
100
AcDbEntity
  8
1
100
AcDbCircle
 10
0.000000000000146
 20
-0.00000000000002
 30
0.0
 40
28.5750000000001
100
AcDbArc
 50
163.974059218359
 51
173.525940781641
  0
LINE
  5
48
330
0
100
AcDbEntity
  8
1
100
AcDbLine
 10
-28.3927774201268
 20
3.22192727589243
 30
0.0
 11
-31.6922797732863
 21
3.59634491285739
 31
0.0
  0
SPLINE
  5
49
330
0
100
AcDbEntity
  8
1
100
AcDbSpline
 70
     8
 71
     3
 72
     8
 73
     4
 74
     0
 40
0.0
 40
0.0
 40
0.0
 40
0.0
 40
1.0
 40
1.0
 40
1.0
 40
1.0
 10
-31.6922797732863
 20
3.59634491285739
 30
0.0
 10
-31.879351245291
 20
3.6050415847185
 30
0.0
 10
-32.441871524126
 20
3.6065079813987
 30
0.0
 10
-33.3827264672139
 20
3.39784097431433
 30
0.0
  0
SPLINE
  5
4A
330
0
100
AcDbEntity
  8
1
100
AcDbSpline
 70
     8
 71
     3
 72
     8
 73
     4
 74
     0
 40
0.0
 40
0.0
 40
0.0
 40
0.0
 40
1.0
 40
1.0
 40
1.0
 40
1.0
 10
-33.3827264672139
 20
3.39784097431433
 30
0.0
 10
-34.5061502030645
 20
3.14395147224186
 30
0.0
 10
-36.1162798413539
 20
2.59271081274067
 30
0.0
 10
-38.0790263788643
 20
1.40735733267892
 30
0.0
  0
ARC
  5
4B
330
0
100
AcDbEntity
  8
1
100
AcDbCircle
 10
0.0
 20
0.0
 30
0.0
 40
38.1050246637381
100
AcDbArc
 50
177.883376803109
 51
182.116623196891
  0
SPLINE
  5
4C
330
0
100
AcDbEntity
  8
1
100
AcDbSpline
 70
     8
 71
     3
 72
     8
 73
     4
 74
     0
 40
0.0
 40
0.0
 40
0.0
 40
0.0
 40
1.0
 40
1.0
 40
1.0
 40
1.0
 10
-38.0790263788643
 20
-1.40735733267892
 30
0.0
 10
-36.1162798413539
 20
-2.59271081274066
 30
0.0
 10
-34.5061502030645
 20
-3.14395147224185
 30
0.0
 10
-33.3827264672139
 20
-3.39784097431433
 30
0.0
  0
SPLINE
  5
4D
330
0
100
AcDbEntity
  8
1
100
AcDbSpline
 70
     8
 71
     3
 72
     8
 73
     4
 74
     0
 40
0.0
 40
0.0
 40
0.0
 40
0.0
 40
1.0
 40
1.0
 40
1.0
 40
1.0
 10
-33.3827264672139
 20
-3.39784097431433
 30
0.0
 10
-32.441871524126
 20
-3.6065079813987
 30
0.0
 10
-31.879351245291
 20
-3.60504158471849
 30
0.0
 10
-31.6922797732863
 20
-3.59634491285738
 30
0.0
  0
LINE
  5
4E
330
0
100
AcDbEntity
  8
1
100
AcDbLine
 10
-31.6922797732863
 20
-3.59634491285738
 30
0.0
 11
-28.3927774201268
 21
-3.22192727589242
 31
0.0
  0
ARC
  5
4F
330
0
100
AcDbEntity
  8
1
100
AcDbCircle
 10
0.00000000000006
 20
0.000000000000013
 30
0.0
 40
28.5750000000001
100
AcDbArc
 50
186.474059218359
 51
196.025940781641
  0
LINE
  5
50
330
0
100
AcDbEntity
  8
1
100
AcDbLine
 10
-27.464484118373
 20
-7.88877285207525
 30
0.0
 11
-30.6561102363817
 21
-8.80552094627586
 31
0.0
  0
SPLINE
  5
51
330
0
100
AcDbEntity
  8
1
100
AcDbSpline
 70
     8
 71
     3
 72
     8
 73
     4
 74
     0
 40
0.0
 40
0.0
 40
0.0
 40
0.0
 40
1.0
 40
1.0
 40
1.0
 40
1.0
 10
-30.6561102363817
 20
-8.80552094627586
 30
0.0
 10
-30.8322698127215
 20
-8.86907542214677
 30
0.0
 10
-31.3525319506745
 20
-9.08298783934693
 30
0.0
 10
-32.1419151691631
 20
-9.63582061528109
 30
0.0
  0
SPLINE
  5
52
330
0
100
AcDbEntity
  8
1
100
AcDbSpline
 70
     8
 71
     3
 72
     8
 73
     4
 74
     0
 40
0.0
 40
0.0
 40
0.0
 40
0.0
 40
1.0
 40
1.0
 40
1.0
 40
1.0
 10
-32.1419151691631
 20
-9.63582061528109
 30
0.0
 10
-33.0826640589583
 20
-10.3002995810011
 30
0.0
 10
-34.3592792088265
 20
-11.4257494803356
 30
0.0
 10
-35.7190054240239
 20
-13.2719838811928
 30
0.0
  0
ARC
  5
53
330
0
100
AcDbEntity
  8
1
100
AcDbCircle
 10
0.0
 20
0.0
 30
0.0
 40
38.1050246637381
100
AcDbArc
 50
200.383376803109
 51
204.616623196891
  0
SPLINE
  5
54
330
0
100
AcDbEntity
  8
1
100
AcDbSpline
 70
     8
 71
     3
 72
     8
 73
     4
 74
     0
 40
0.0
 40
0.0
 40
0.0
 40
0.0
 40
1.0
 40
1.0
 40
1.0
 40
1.0
 10
-34.6418607547564
 20
-15.8724411503763
 30
0.0
 10
-32.3749042629272
 20
-16.2164543875592
 30
0.0
 10
-30.6763877777847
 20
-16.109564413827
 30
0.0
 10
-29.5413202758004
 20
-15.9142120770755
 30
0.0
  0
SPLINE
  5
55
330
0
100
AcDbEntity
  8
1
100
AcDbSpline
 70
     8
 71
     3
 72
     8
 73
     4
 74
     0
 40
0.0
 40
0.0
 40
0.0
 40
0.0
 40
1.0
 40
1.0
 40
1.0
 40
1.0
 10
-29.5413202758004
 20
-15.9142120770755
 30
0.0
 10
-28.592230244327
 20
-15.7469456550526
 30
0.0
 10
-28.0730904378036
 20
-15.5303236900937
 30
0.0
 10
-27.9035870059397
 20
-15.4506998599559
 30
0.0
  0
LINE
  5
56
330
0
100
AcDbEntity
  8
1
100
AcDbLine
 10
-27.9035870059397
 20
-15.4506998599559
 30
0.0
 11
-24.9985277408345
 21
-13.842118182949
 31
0.0
  0
ARC
  5
57
330
0
100
AcDbEntity
  8
1
100
AcDbCircle
 10
0.000000000000172
 20
0.000000000000133
 30
0.0
 40
28.5750000000002
100
AcDbArc
 50
208.974059218359
 51
218.525940781641
  0
LINE
  5
58
330
0
100
AcDbEntity
  8
1
100
AcDbLine
 10
-22.3549720757654
 20
-17.7984788252185
 30
0.0
 11
-24.9528258143192
 21
-19.8668260635848
 31
0.0
  0
SPLINE
  5
59
330
0
100
AcDbEntity
  8
1
100
AcDbSpline
 70
     8
 71
     3
 72
     8
 73
     4
 74
     0
 40
0.0
 40
0.0
 40
0.0
 40
0.0
 40
1.0
 40
1.0
 40
1.0
 40
1.0
 10
-24.9528258143192
 20
-19.8668260635848
 30
0.0
 10
-25.091254796387
 20
-19.9929560943591
 30
0.0
 10
-25.4900535991427
 20
-20.3896810990418
 30
0.0
 10
-26.0077886537937
 20
-21.2025158651314
 30
0.0
  0
SPLINE
  5
5A
330
0
100
AcDbEntity
  8
1
100
AcDbSpline
 70
     8
 71
     3
 72
     8
 73
     4
 74
     0
 40
0.0
 40
0.0
 40
0.0
 40
0.0
 40
1.0
 40
1.0
 40
1.0
 40
1.0
 10
-26.0077886537937
 20
-21.2025158651314
 30
0.0
 10
-26.6226422069721
 20
-22.1764233954848
 30
0.0
 10
-27.371389784397
 20
-23.7047429897078
 30
0.0
 10
-27.9210896869663
 20
-25.9307858599865
 30
0.0
  0
ARC
  5
5B
330
0
100
AcDbEntity
  8
1
100
AcDbCircle
 10
0.0
 20
0.0
 30
0.0
 40
38.1050246637381
100
AcDbArc
 50
222.883376803109
 51
227.116623196891
  0
SPLINE
  5
5C
330
0
100
AcDbEntity
  8
1
100
AcDbSpline
 70
     8
 71
     3
 72
     8
 73
     4
 74
     0
 40
0.0
 40
0.0
 40
0.0
 40
0.0
 40
1.0
 40
1.0
 40
1.0
 40
1.0
 10
-25.9307858599865
 20
-27.9210896869663
 30
0.0
 10
-23.7047429897078
 20
-27.371389784397
 30
0.0
 10
-22.1764233954848
 20
-26.6226422069721
 30
0.0
 10
-21.2025158651314
 20
-26.0077886537937
 30
0.0
  0
SPLINE
  5
5D
330
0
100
AcDbEntity
  8
1
100
AcDbSpline
 70
     8
 71
     3
 72
     8
 73
     4
 74
     0
 40
0.0
 40
0.0
 40
0.0
 40
0.0
 40
1.0
 40
1.0
 40
1.0
 40
1.0
 10
-21.2025158651314
 20
-26.0077886537937
 30
0.0
 10
-20.3896810990418
 20
-25.4900535991427
 30
0.0
 10
-19.9929560943591
 20
-25.091254796387
 30
0.0
 10
-19.8668260635848
 20
-24.9528258143192
 30
0.0
  0
LINE
  5
5E
330
0
100
AcDbEntity
  8
1
100
AcDbLine
 10
-19.8668260635848
 20
-24.9528258143192
 30
0.0
 11
-17.7984788252185
 21
-22.3549720757654
 31
0.0
  0
ARC
  5
5F
330
0
100
AcDbEntity
  8
1
100
AcDbCircle
 10
0.000000000000105
 20
0.000000000000181
 30
0.0
 40
28.5750000000002
100
AcDbArc
 50
231.474059218359
 51
241.025940781641
  0
LINE
  5
60
330
0
100
AcDbEntity
  8
1
100
AcDbLine
 10
-13.842118182949
 20
-24.9985277408345
 30
0.0
 11
-15.4506998599559
 21
-27.9035870059397
 31
0.0
  0
SPLINE
  5
61
330
0
100
AcDbEntity
  8
1
100
AcDbSpline
 70
     8
 71
     3
 72
     8
 73
     4
 74
     0
 40
0.0
 40
0.0
 40
0.0
 40
0.0
 40
1.0
 40
1.0
 40
1.0
 40
1.0
 10
-15.4506998599559
 20
-27.9035870059397
 30
0.0
 10
-15.5303236900937
 20
-28.0730904378036
 30
0.0
 10
-15.7469456550527
 20
-28.592230244327
 30
0.0
 10
-15.9142120770755
 20
-29.5413202758004
 30
0.0
  0
SPLINE
  5
62
330
0
100
AcDbEntity
  8
1
100
AcDbSpline
 70
     8
 71
     3
 72
     8
 73
     4
 74
     0
 40
0.0
 40
0.0
 40
0.0
 40
0.0
 40
1.0
 40
1.0
 40
1.0
 40
1.0
 10
-15.9142120770755
 20
-29.5413202758004
 30
0.0
 10
-16.109564413827
 20
-30.6763877777847
 30
0.0
 10
-16.2164543875592
 20
-32.3749042629272
 30
0.0
 10
-15.8724411503763
 20
-34.6418607547564
 30
0.0
  0
ARC
  5
63
330
0
100
AcDbEntity
  8
1
100
AcDbCircle
 10
0.0
 20
0.0
 30
0.0
 40
38.1050246637381
100
AcDbArc
 50
245.383376803109
 51
249.616623196891
  0
SPLINE
  5
64
330
0
100
AcDbEntity
  8
1
100
AcDbSpline
 70
     8
 71
     3
 72
     8
 73
     4
 74
     0
 40
0.0
 40
0.0
 40
0.0
 40
0.0
 40
1.0
 40
1.0
 40
1.0
 40
1.0
 10
-13.2719838811929
 20
-35.7190054240239
 30
0.0
 10
-11.4257494803356
 20
-34.3592792088266
 30
0.0
 10
-10.3002995810011
 20
-33.0826640589583
 30
0.0
 10
-9.6358206152811
 20
-32.1419151691631
 30
0.0
  0
SPLINE
  5
65
330
0
100
AcDbEntity
  8
1
100
AcDbSpline
 70
     8
 71
     3
 72
     8
 73
     4
 74
     0
 40
0.0
 40
0.0
 40
0.0
 40
0.0
 40
1.0
 40
1.0
 40
1.0
 40
1.0
 10
-9.6358206152811
 20
-32.1419151691631
 30
0.0
 10
-9.08298783934694
 20
-31.3525319506745
 30
0.0
 10
-8.86907542214678
 20
-30.8322698127215
 30
0.0
 10
-8.80552094627587
 20
-30.6561102363816
 30
0.0
  0
LINE
  5
66
330
0
100
AcDbEntity
  8
1
100
AcDbLine
 10
-8.80552094627587
 20
-30.6561102363816
 30
0.0
 11
-7.88877285207526
 21
-27.464484118373
 31
0.0
  0
ARC
  5
67
330
0
100
AcDbEntity
  8
1
100
AcDbCircle
 10
0.000000000000012
 20
0.000000000000073
 30
0.0
 40
28.5750000000001
100
AcDbArc
 50
253.974059218359
 51
263.525940781641
  0
LINE
  5
68
330
0
100
AcDbEntity
  8
1
100
AcDbLine
 10
-3.22192727589243
 20
-28.3927774201268
 30
0.0
 11
-3.59634491285739
 21
-31.6922797732863
 31
0.0
  0
SPLINE
  5
69
330
0
100
AcDbEntity
  8
1
100
AcDbSpline
 70
     8
 71
     3
 72
     8
 73
     4
 74
     0
 40
0.0
 40
0.0
 40
0.0
 40
0.0
 40
1.0
 40
1.0
 40
1.0
 40
1.0
 10
-3.59634491285739
 20
-31.6922797732863
 30
0.0
 10
-3.6050415847185
 20
-31.879351245291
 30
0.0
 10
-3.60650798139871
 20
-32.441871524126
 30
0.0
 10
-3.39784097431434
 20
-33.3827264672139
 30
0.0
  0
SPLINE
  5
6A
330
0
100
AcDbEntity
  8
1
100
AcDbSpline
 70
     8
 71
     3
 72
     8
 73
     4
 74
     0
 40
0.0
 40
0.0
 40
0.0
 40
0.0
 40
1.0
 40
1.0
 40
1.0
 40
1.0
 10
-3.39784097431434
 20
-33.3827264672139
 30
0.0
 10
-3.14395147224187
 20
-34.5061502030645
 30
0.0
 10
-2.59271081274067
 20
-36.1162798413539
 30
0.0
 10
-1.40735733267893
 20
-38.0790263788643
 30
0.0
  0
ARC
  5
6B
330
0
100
AcDbEntity
  8
1
100
AcDbCircle
 10
0.0
 20
0.0
 30
0.0
 40
38.1050246637381
100
AcDbArc
 50
267.883376803109
 51
272.116623196891
  0
SPLINE
  5
6C
330
0
100
AcDbEntity
  8
1
100
AcDbSpline
 70
     8
 71
     3
 72
     8
 73
     4
 74
     0
 40
0.0
 40
0.0
 40
0.0
 40
0.0
 40
1.0
 40
1.0
 40
1.0
 40
1.0
 10
1.40735733267891
 20
-38.0790263788643
 30
0.0
 10
2.59271081274066
 20
-36.1162798413539
 30
0.0
 10
3.14395147224185
 20
-34.5061502030645
 30
0.0
 10
3.39784097431432
 20
-33.3827264672139
 30
0.0
  0
SPLINE
  5
6D
330
0
100
AcDbEntity
  8
1
100
AcDbSpline
 70
     8
 71
     3
 72
     8
 73
     4
 74
     0
 40
0.0
 40
0.0
 40
0.0
 40
0.0
 40
1.0
 40
1.0
 40
1.0
 40
1.0
 10
3.39784097431432
 20
-33.3827264672139
 30
0.0
 10
3.60650798139869
 20
-32.441871524126
 30
0.0
 10
3.60504158471849
 20
-31.879351245291
 30
0.0
 10
3.59634491285738
 20
-31.6922797732863
 30
0.0
  0
LINE
  5
6E
330
0
100
AcDbEntity
  8
1
100
AcDbLine
 10
3.59634491285738
 20
-31.6922797732863
 30
0.0
 11
3.22192727589242
 21
-28.3927774201268
 31
0.0
  0
ARC
  5
6F
330
0
100
AcDbEntity
  8
1
100
AcDbCircle
 10
-0.000000000000057
 20
0.000000000000211
 30
0.0
 40
28.5750000000002
100
AcDbArc
 50
276.474059218359
 51
286.025940781641
  0
LINE
  5
70
330
0
100
AcDbEntity
  8
1
100
AcDbLine
 10
7.88877285207528
 20
-27.464484118373
 30
0.0
 11
8.80552094627589
 21
-30.6561102363816
 31
0.0
  0
SPLINE
  5
71
330
0
100
AcDbEntity
  8
1
100
AcDbSpline
 70
     8
 71
     3
 72
     8
 73
     4
 74
     0
 40
0.0
 40
0.0
 40
0.0
 40
0.0
 40
1.0
 40
1.0
 40
1.0
 40
1.0
 10
8.80552094627589
 20
-30.6561102363816
 30
0.0
 10
8.8690754221468
 20
-30.8322698127215
 30
0.0
 10
9.08298783934696
 20
-31.3525319506745
 30
0.0
 10
9.63582061528112
 20
-32.1419151691631
 30
0.0
  0
SPLINE
  5
72
330
0
100
AcDbEntity
  8
1
100
AcDbSpline
 70
     8
 71
     3
 72
     8
 73
     4
 74
     0
 40
0.0
 40
0.0
 40
0.0
 40
0.0
 40
1.0
 40
1.0
 40
1.0
 40
1.0
 10
9.63582061528112
 20
-32.1419151691631
 30
0.0
 10
10.3002995810011
 20
-33.0826640589583
 30
0.0
 10
11.4257494803356
 20
-34.3592792088265
 30
0.0
 10
13.2719838811929
 20
-35.7190054240239
 30
0.0
  0
ARC
  5
73
330
0
100
AcDbEntity
  8
1
100
AcDbCircle
 10
0.0
 20
0.0
 30
0.0
 40
38.1050246637381
100
AcDbArc
 50
290.383376803109
 51
294.616623196891
  0
SPLINE
  5
74
330
0
100
AcDbEntity
  8
1
100
AcDbSpline
 70
     8
 71
     3
 72
     8
 73
     4
 74
     0
 40
0.0
 40
0.0
 40
0.0
 40
0.0
 40
1.0
 40
1.0
 40
1.0
 40
1.0
 10
15.8724411503763
 20
-34.6418607547564
 30
0.0
 10
16.2164543875592
 20
-32.3749042629272
 30
0.0
 10
16.109564413827
 20
-30.6763877777847
 30
0.0
 10
15.9142120770756
 20
-29.5413202758004
 30
0.0
  0
SPLINE
  5
75
330
0
100
AcDbEntity
  8
1
100
AcDbSpline
 70
     8
 71
     3
 72
     8
 73
     4
 74
     0
 40
0.0
 40
0.0
 40
0.0
 40
0.0
 40
1.0
 40
1.0
 40
1.0
 40
1.0
 10
15.9142120770756
 20
-29.5413202758004
 30
0.0
 10
15.7469456550527
 20
-28.592230244327
 30
0.0
 10
15.5303236900937
 20
-28.0730904378036
 30
0.0
 10
15.4506998599559
 20
-27.9035870059396
 30
0.0
  0
LINE
  5
76
330
0
100
AcDbEntity
  8
1
100
AcDbLine
 10
15.4506998599559
 20
-27.9035870059396
 30
0.0
 11
13.842118182949
 21
-24.9985277408345
 31
0.0
  0
ARC
  5
77
330
0
100
AcDbEntity
  8
1
100
AcDbCircle
 10
-0.000000000000044
 20
0.000000000000062
 30
0.0
 40
28.5750000000001
100
AcDbArc
 50
298.974059218359
 51
308.525940781641
  0
LINE
  5
78
330
0
100
AcDbEntity
  8
1
100
AcDbLine
 10
17.7984788252185
 20
-22.3549720757654
 30
0.0
 11
19.8668260635848
 21
-24.9528258143192
 31
0.0
  0
SPLINE
  5
79
330
0
100
AcDbEntity
  8
1
100
AcDbSpline
 70
     8
 71
     3
 72
     8
 73
     4
 74
     0
 40
0.0
 40
0.0
 40
0.0
 40
0.0
 40
1.0
 40
1.0
 40
1.0
 40
1.0
 10
19.8668260635848
 20
-24.9528258143192
 30
0.0
 10
19.9929560943591
 20
-25.091254796387
 30
0.0
 10
20.3896810990418
 20
-25.4900535991427
 30
0.0
 10
21.2025158651314
 20
-26.0077886537937
 30
0.0
  0
SPLINE
  5
7A
330
0
100
AcDbEntity
  8
1
100
AcDbSpline
 70
     8
 71
     3
 72
     8
 73
     4
 74
     0
 40
0.0
 40
0.0
 40
0.0
 40
0.0
 40
1.0
 40
1.0
 40
1.0
 40
1.0
 10
21.2025158651314
 20
-26.0077886537937
 30
0.0
 10
22.1764233954848
 20
-26.6226422069721
 30
0.0
 10
23.7047429897078
 20
-27.371389784397
 30
0.0
 10
25.9307858599865
 20
-27.9210896869663
 30
0.0
  0
ARC
  5
7B
330
0
100
AcDbEntity
  8
1
100
AcDbCircle
 10
0.0
 20
0.0
 30
0.0
 40
38.1050246637381
100
AcDbArc
 50
312.883376803109
 51
317.116623196891
  0
SPLINE
  5
7C
330
0
100
AcDbEntity
  8
1
100
AcDbSpline
 70
     8
 71
     3
 72
     8
 73
     4
 74
     0
 40
0.0
 40
0.0
 40
0.0
 40
0.0
 40
1.0
 40
1.0
 40
1.0
 40
1.0
 10
27.9210896869663
 20
-25.9307858599865
 30
0.0
 10
27.371389784397
 20
-23.7047429897078
 30
0.0
 10
26.6226422069721
 20
-22.1764233954848
 30
0.0
 10
26.0077886537937
 20
-21.2025158651314
 30
0.0
  0
SPLINE
  5
7D
330
0
100
AcDbEntity
  8
1
100
AcDbSpline
 70
     8
 71
     3
 72
     8
 73
     4
 74
     0
 40
0.0
 40
0.0
 40
0.0
 40
0.0
 40
1.0
 40
1.0
 40
1.0
 40
1.0
 10
26.0077886537937
 20
-21.2025158651314
 30
0.0
 10
25.4900535991427
 20
-20.3896810990418
 30
0.0
 10
25.091254796387
 20
-19.9929560943591
 30
0.0
 10
24.9528258143192
 20
-19.8668260635848
 30
0.0
  0
LINE
  5
7E
330
0
100
AcDbEntity
  8
1
100
AcDbLine
 10
24.9528258143192
 20
-19.8668260635848
 30
0.0
 11
22.3549720757654
 21
-17.7984788252185
 31
0.0
  0
ARC
  5
7F
330
0
100
AcDbEntity
  8
1
100
AcDbCircle
 10
-0.000000000000201
 20
0.000000000000114
 30
0.0
 40
28.5750000000002
100
AcDbArc
 50
321.474059218359
 51
331.025940781641
  0
LINE
  5
80
330
0
100
AcDbEntity
  8
1
100
AcDbLine
 10
24.9985277408345
 20
-13.842118182949
 30
0.0
 11
27.9035870059397
 21
-15.4506998599559
 31
0.0
  0
SPLINE
  5
81
330
0
100
AcDbEntity
  8
1
100
AcDbSpline
 70
     8
 71
     3
 72
     8
 73
     4
 74
     0
 40
0.0
 40
0.0
 40
0.0
 40
0.0
 40
1.0
 40
1.0
 40
1.0
 40
1.0
 10
27.9035870059397
 20
-15.4506998599559
 30
0.0
 10
28.0730904378036
 20
-15.5303236900937
 30
0.0
 10
28.592230244327
 20
-15.7469456550527
 30
0.0
 10
29.5413202758004
 20
-15.9142120770755
 30
0.0
  0
SPLINE
  5
82
330
0
100
AcDbEntity
  8
1
100
AcDbSpline
 70
     8
 71
     3
 72
     8
 73
     4
 74
     0
 40
0.0
 40
0.0
 40
0.0
 40
0.0
 40
1.0
 40
1.0
 40
1.0
 40
1.0
 10
29.5413202758004
 20
-15.9142120770755
 30
0.0
 10
30.6763877777847
 20
-16.109564413827
 30
0.0
 10
32.3749042629272
 20
-16.2164543875592
 30
0.0
 10
34.6418607547564
 20
-15.8724411503763
 30
0.0
  0
ARC
  5
83
330
0
100
AcDbEntity
  8
1
100
AcDbCircle
 10
0.0
 20
0.0
 30
0.0
 40
38.1050246637381
100
AcDbArc
 50
335.383376803109
 51
339.616623196891
  0
SPLINE
  5
84
330
0
100
AcDbEntity
  8
1
100
AcDbSpline
 70
     8
 71
     3
 72
     8
 73
     4
 74
     0
 40
0.0
 40
0.0
 40
0.0
 40
0.0
 40
1.0
 40
1.0
 40
1.0
 40
1.0
 10
35.7190054240239
 20
-13.2719838811929
 30
0.0
 10
34.3592792088266
 20
-11.4257494803356
 30
0.0
 10
33.0826640589583
 20
-10.3002995810011
 30
0.0
 10
32.1419151691631
 20
-9.63582061528111
 30
0.0
  0
SPLINE
  5
85
330
0
100
AcDbEntity
  8
1
100
AcDbSpline
 70
     8
 71
     3
 72
     8
 73
     4
 74
     0
 40
0.0
 40
0.0
 40
0.0
 40
0.0
 40
1.0
 40
1.0
 40
1.0
 40
1.0
 10
32.1419151691631
 20
-9.63582061528111
 30
0.0
 10
31.3525319506745
 20
-9.08298783934694
 30
0.0
 10
30.8322698127215
 20
-8.86907542214678
 30
0.0
 10
30.6561102363816
 20
-8.80552094627587
 30
0.0
  0
LINE
  5
86
330
0
100
AcDbEntity
  8
1
100
AcDbLine
 10
30.6561102363816
 20
-8.80552094627587
 30
0.0
 11
27.464484118373
 21
-7.88877285207526
 31
0.0
  0
ARC
  5
87
330
0
100
AcDbEntity
  8
1
100
AcDbCircle
 10
-0.000000000000105
 20
0.000000000000022
 30
0.0
 40
28.5750000000001
100
AcDbArc
 50
343.974059218359
 51
353.525940781641
  0
CIRCLE
  5
88
330
0
100
AcDbEntity
  8
1
100
AcDbCircle
 10
0.0
 20
0.0
 30
0.0
 40
1.5
  0
ENDSEC
  0
SECTION
  2
OBJECTS
  0
DICTIONARY
  5
9D
330
0
100
AcDbDictionary
  3
ACAD_GROUP
350
9E
  0
DICTIONARY
  5
9E
330
9D
100
AcDbDictionary
  0
ENDSEC
  0
EOF
